<svg id="Group_1193" data-name="Group 1193" xmlns="http://www.w3.org/2000/svg" xmlns:xlink="http://www.w3.org/1999/xlink" viewBox="0 0 45 45">
  <defs>
    <clipPath id="clip-path">
      <rect id="Rectangle_1917" data-name="Rectangle 1917"  fill="#0e1d42"/>
    </clipPath>
  </defs>
  <g id="Group_1192" data-name="Group 1192" clip-path="url(#clip-path)">
    <path id="Path_4835" data-name="Path 4835" d="M22.5,0A22.5,22.5,0,1,0,45,22.5,22.5,22.5,0,0,0,22.5,0m0,5.625a16.852,16.852,0,1,1-.046,0H22.5M19.954,23.992,23.4,27.281v0c1.035,1.159,4.981-2.786,3.821-3.821v0L25.564,21.8a.856.856,0,0,1-.252-.608v-7.02c0-1.553-5.625-1.553-5.625,0v9.194a.859.859,0,0,0,.266.623" fill="#0e1d42" stroke="none"/>
  </g>
</svg>
