<svg xmlns="http://www.w3.org/2000/svg"><defs><style>.stroke{fill:none;stroke:inherit;}.fill{fill:inherit;stroke:none;}.logo-class-1{fill:none;}.logo-class-2{clip-path:url(#logo-clip-path-1);}.logo-class-3{fill:url(#logo-gradient-1);}.logo-class-4{clip-path:url(#logo-clip-path-2);}.logo-class-5{fill:url(#logo-gradient-2);}.logo-class-6{clip-path:url(#logo-clip-path-3);}.logo-class-7{fill:url(#logo-gradient-3);}</style><clipPath id="logo-clip-path-1" transform="translate(86.79 105.03)"><path class="logo-class-1" d="M81,102.41c-2.88,5-5.63,9.75-8.18,14.18a127.5,127.5,0,0,0-6.38,97,118,118,0,0,0,5.51,13.44l65-112.65-25.44-44a127.1,127.1,0,0,0-30.55,32"/></clipPath><linearGradient id="logo-gradient-1" x1="194.67" y1="645.39" x2="198.79" y2="645.39" gradientTransform="matrix(42.53, 0, 0, -42.53, -8272.97, 27598.25)" gradientUnits="userSpaceOnUse"><stop offset="0" stop-color="#fff"/><stop offset="0.3" stop-color="#bac1c7"/><stop offset="0.63" stop-color="#72808c"/><stop offset="0.88" stop-color="#445867"/><stop offset="1" stop-color="#334859"/></linearGradient><clipPath id="logo-clip-path-2" transform="translate(86.79 105.03)"><path class="logo-class-1" d="M56,145.74c-3.74,6.47-7.44,12.92-11.18,19.38Q34,183.8,23.27,202.4c-3,5.22-6.05,10.41-9,15.63-3.53,6.12-7.43,12.09-10.39,18.5A41.21,41.21,0,0,0,0,254.29a45.65,45.65,0,0,0,31.21,43.29,45.18,45.18,0,0,0,14.43,2.34H186.82A127.13,127.13,0,0,1,71.91,227.11v0a118,118,0,0,1-5.51-13.44,127.5,127.5,0,0,1,6.38-97C62.91,133.66,56,145.74,56,145.74"/></clipPath><radialGradient id="logo-gradient-2" cx="204.59" cy="625.45" r="4.12" gradientTransform="matrix(-54.84, 0, 0, 54.84, 11344.52, -34080.98)" gradientUnits="userSpaceOnUse"><stop offset="0" stop-color="#00aeef"/><stop offset="0.18" stop-color="#00a1e1"/><stop offset="0.51" stop-color="#007ebc"/><stop offset="0.97" stop-color="#004680"/><stop offset="1" stop-color="#00427c"/></radialGradient><clipPath id="logo-clip-path-3" transform="translate(86.79 105.03)"><path class="logo-class-1" d="M137.16,5.13s-32.36,56-56.2,97.28a127.1,127.1,0,0,1,30.55-32l25.44,44L246.33,303.87h78.94L152.78,5.13A8.93,8.93,0,0,0,145,0c-3.66,0-6.09,2.13-7.81,5.13"/></clipPath><linearGradient id="logo-gradient-3" x1="192.58" y1="629.16" x2="196.7" y2="629.16" gradientTransform="matrix(0, 75.6, 75.6, 0, -47358.63, -14538.03)" xlink:href="#logo-gradient-2"/></defs></svg>