<svg xmlns="http://www.w3.org/2000/svg" width="45" height="54.716" viewBox="0 0 45 54.716">
  <path id="listening" d="M23.932,28.406c0,1.977-7.159,1.977-7.159,0a10.227,10.227,0,1,1,20.455,0c0,1.977-7.159,1.977-7.159,0a3.068,3.068,0,1,0-6.136,0ZM27,5.906a22.525,22.525,0,0,0-22.5,22.5c0,1.977,7.159,1.977,7.159,0a15.341,15.341,0,1,1,30.682,0c0,9.609-9.078,8.989-9.2,18.361v.048a6.655,6.655,0,0,1-6.648,6.648c-1.977,0-1.977,7.159,0,7.159A13.823,13.823,0,0,0,40.3,46.844c.076-4.4,9.2-6.167,9.2-18.438A22.525,22.525,0,0,0,27,5.906Z" transform="translate(-4.5 -5.906)" fill="#0e1d42" stroke="none"/>
</svg>
