<svg xmlns="http://www.w3.org/2000/svg" viewBox="0 0 27.3 37.54">

    <title>Menu Button - Lock</title>
    <style>.fill{ fill: #fff; }</style>
    <path class="fill" d="M23.89,13.65h0V10.24a10.24,10.24,0,0,0-20.48,0v3.41A3.41,3.41,0,0,0,0,17.06V34.13a3.41,3.41,0,0,0,3.41,3.41H23.89a3.41,3.41,0,0,0,3.41-3.41V17.06A3.41,3.41,0,0,0,23.89,13.65ZM13.65,3.41a6.84,6.84,0,0,1,6.83,6.83v3.41H6.83V10.24A6.83,6.83,0,0,1,13.65,3.41Zm1.71,23.43V29a1.71,1.71,0,0,1-3.42,0V26.84a3.41,3.41,0,1,1,3.42,0Z"/>
</svg>