<svg xmlns="http://www.w3.org/2000/svg" width="338" height="64" viewBox="0 0 338 64.384">
  <g id="HUB_Maths-Primary" transform="translate(-3.42 -6.11)">
    <path id="Path_4836" data-name="Path 4836" d="M34.461,7.23l12.377,20.4L59.214,7.23h4.611V41.205H57.273V22.276l-8.1,13.347H44.549L36.4,22.276V41.205H29.85V7.23Z" transform="translate(19.384 0.822)" fill="#0e1d42"/>
    <path id="Path_4837" data-name="Path 4837" d="M76.062,13.4v23.54H69.995V35.048a9.863,9.863,0,0,1-6.552,2.375,11.2,11.2,0,0,1-8.875-3.987,12.134,12.134,0,0,1-3.016-8.251,12.134,12.134,0,0,1,3.467-8.667,10.851,10.851,0,0,1,8.164-3.467,10.591,10.591,0,0,1,6.934,2.375V13.4Zm-6.31,15.289V21.632a6.934,6.934,0,0,0-5.824-2.912,5.547,5.547,0,0,0-4.368,1.924,6.6,6.6,0,0,0-1.733,4.524,6.31,6.31,0,0,0,1.733,4.594,5.963,5.963,0,0,0,4.455,1.82A6.535,6.535,0,0,0,69.752,28.687Z" transform="translate(35.299 5.089)" fill="#0e1d42"/>
    <path id="Path_4838" data-name="Path 4838" d="M86.644,34.223l.988,5.339a12.134,12.134,0,0,1-3.935.485,9.464,9.464,0,0,1-8.147-3.467,11.718,11.718,0,0,1-1.733-7.038V21.361H67.23V16.022h6.535V9.47h6.31v6.552H87.84v5.339H80.092V30.34a4.594,4.594,0,0,0,.78,2.964,4.039,4.039,0,0,0,3.207,1.161,12.134,12.134,0,0,0,2.566-.243Z" transform="translate(46.8 2.465)" fill="#0e1d42"/>
    <path id="Path_4839" data-name="Path 4839" d="M87.223,26.068V41.357H81V7h6.31V19.619a10.609,10.609,0,0,1,14.561,1.595,12.5,12.5,0,0,1,2.427,8.251v12H97.9V28.98a6.015,6.015,0,0,0-1.4-4.4A4.75,4.75,0,0,0,93.03,23.26a6.622,6.622,0,0,0-3.467.9A6.934,6.934,0,0,0,87.223,26.068Z" transform="translate(56.899 0.653)" fill="#0e1d42"/>
    <path id="Path_4840" data-name="Path 4840" d="M114.452,29.643l3.588,3.588a11.372,11.372,0,0,1-4.282,3.12,13.434,13.434,0,0,1-5.374,1.109,12.134,12.134,0,0,1-8.823-3.38A11.7,11.7,0,0,1,96.1,25.223a12.585,12.585,0,0,1,3.189-8.667A10.522,10.522,0,0,1,107.518,13a10.227,10.227,0,0,1,7.956,3.467,12.325,12.325,0,0,1,3.155,8.511,10.9,10.9,0,0,1-.139,1.733H102.179a5.824,5.824,0,0,0,2.028,4.022,6.4,6.4,0,0,0,4.334,1.56,7.8,7.8,0,0,0,5.911-2.652Zm-11.978-7.471h9.707a4.42,4.42,0,0,0-1.491-2.895,4.524,4.524,0,0,0-3.172-1.231,5.044,5.044,0,0,0-3.346,1.231,4.646,4.646,0,0,0-1.7,2.895Z" transform="translate(67.961 5.051)" fill="#0e1d42"/>
    <path id="Path_4841" data-name="Path 4841" d="M117.36,36.975h-6.31V13.435h6.067v1.889A9.291,9.291,0,0,1,123.479,13a9.777,9.777,0,0,1,7.9,3.692A11.129,11.129,0,0,1,139.738,13a10.988,10.988,0,0,1,4.627,1.022,9.828,9.828,0,0,1,3.624,2.757,11.961,11.961,0,0,1,2.375,7.766V37.027h-6.31V24.251a5.894,5.894,0,0,0-1.161-4.022,4.559,4.559,0,0,0-3.467-1.456,6.188,6.188,0,0,0-3.363.971,7.471,7.471,0,0,0-2.305,2.132,23.466,23.466,0,0,1,.191,2.617V36.975h-6.31V24.251a5.894,5.894,0,0,0-1.161-4.022,4.559,4.559,0,0,0-3.554-1.456,6.778,6.778,0,0,0-5.564,2.895Z" transform="translate(78.939 5.052)" fill="#0e1d42"/>
    <path id="Path_4842" data-name="Path 4842" d="M160.46,13.4v23.54h-6.067V35.048a9.863,9.863,0,0,1-6.552,2.375,11.2,11.2,0,0,1-8.875-3.987A12.134,12.134,0,0,1,136,25.185a12.134,12.134,0,0,1,3.38-8.667,10.851,10.851,0,0,1,8.164-3.467,10.626,10.626,0,0,1,6.934,2.375V13.4Zm-6.31,15.289V21.632a6.934,6.934,0,0,0-5.824-2.912,5.547,5.547,0,0,0-4.368,1.924,6.6,6.6,0,0,0-1.733,4.524,6.31,6.31,0,0,0,1.733,4.594,5.946,5.946,0,0,0,4.438,1.82,6.552,6.552,0,0,0,5.755-2.895Z" transform="translate(97.236 5.089)" fill="#0e1d42"/>
    <path id="Path_4843" data-name="Path 4843" d="M171.617,34.223l.971,5.339a12.134,12.134,0,0,1-3.935.485,9.465,9.465,0,0,1-8.147-3.467,11.6,11.6,0,0,1-1.733-7.038V21.361H152.22V16.022h6.552V9.47h6.31v6.552h7.766v5.339h-7.766V30.34a4.593,4.593,0,0,0,.78,2.964,4,4,0,0,0,3.207,1.161,12.134,12.134,0,0,0,2.548-.243Z" transform="translate(109.134 2.465)" fill="#0e1d42"/>
    <path id="Path_4844" data-name="Path 4844" d="M167.7,13.009a3.813,3.813,0,0,1-1.213-2.877,3.8,3.8,0,0,1,1.213-2.86,4.23,4.23,0,0,1,5.824,0,3.8,3.8,0,0,1,1.213,2.86,3.813,3.813,0,0,1-1.213,2.877A4.23,4.23,0,0,1,167.7,13.009Zm6.067,5.478v23.54h-6.31V18.487Z" transform="translate(119.599 0)" fill="#0e1d42"/>
    <path id="Path_4845" data-name="Path 4845" d="M191.654,28.6l4.854,3.64a12.706,12.706,0,0,1-10.678,5.287,12.342,12.342,0,0,1-9.031-3.467,11.787,11.787,0,0,1-3.588-8.667,11.735,11.735,0,0,1,3.64-8.667A12.394,12.394,0,0,1,185.882,13a12.637,12.637,0,0,1,9.9,4.715l-4.472,3.952a6.535,6.535,0,0,0-5.426-2.808,6.067,6.067,0,0,0-4.542,1.872,6.31,6.31,0,0,0-1.82,4.576,6.223,6.223,0,0,0,1.82,4.594,6.327,6.327,0,0,0,4.68,1.82,6.136,6.136,0,0,0,3.276-.9,7.384,7.384,0,0,0,2.358-2.219Z" transform="translate(124.528 5.053)" fill="#0e1d42"/>
    <path id="Path_4846" data-name="Path 4846" d="M187.54,34.307l3.068-4.507a9.291,9.291,0,0,0,6.4,2.271,3.9,3.9,0,0,0,2.132-.555,1.734,1.734,0,0,0,.884-1.439,1.959,1.959,0,0,0-1.161-1.647,15.219,15.219,0,0,0-2.843-1.213c-1.109-.347-2.236-.763-3.467-1.231a7.037,7.037,0,0,1-2.86-2.184,5.6,5.6,0,0,1-1.161-3.571,6.344,6.344,0,0,1,2.687-5.2A10.193,10.193,0,0,1,197.7,13a15.029,15.029,0,0,1,4.455.711,10.817,10.817,0,0,1,3.467,1.733l-2.93,4.49a7.766,7.766,0,0,0-4.507-1.595,4.8,4.8,0,0,0-2.288.5,1.577,1.577,0,0,0-.919,1.387c0,.555.381,1.023,1.161,1.4A19.693,19.693,0,0,0,199,22.762a28.69,28.69,0,0,1,3.38,1.283,7.315,7.315,0,0,1,2.843,2.323,6.656,6.656,0,0,1-1.577,9.135A10.973,10.973,0,0,1,197,37.462a15.6,15.6,0,0,1-9.464-3.155Z" transform="translate(135.038 5.051)" fill="#0e1d42"/>
    <path id="Path_4847" data-name="Path 4847" d="M45.524,52.275V42.013H33.39V52.275H30.27V30.52h3.12v8.546H45.524V30.52h3.1V52.275Z" transform="translate(19.693 17.903)" fill="#0e1d42"/>
    <path id="Path_4848" data-name="Path 4848" d="M49.625,49.565a6.275,6.275,0,0,1-5.2-2.461A7.835,7.835,0,0,1,43.108,42.2V34.64h2.947v7.922a4.351,4.351,0,0,0,.849,2.929,3.467,3.467,0,0,0,2.825,1.265,5.2,5.2,0,0,0,4.091-2.08V34.64H56.8V49.253H53.924V47.918a5.565,5.565,0,0,1-1.733,1.127,5.981,5.981,0,0,1-2.565.52Z" transform="translate(29.095 20.925)" fill="#0e1d42"/>
    <path id="Path_4849" data-name="Path 4849" d="M56.53,51.072v1.335H53.67V30.34h2.964v8.667A6.743,6.743,0,0,1,61.176,37.5a6.934,6.934,0,0,1,3.467.919,7.644,7.644,0,0,1,2.739,2.773A7.731,7.731,0,0,1,68.4,45.109a7.87,7.87,0,0,1-1.005,3.9,7.506,7.506,0,0,1-2.756,2.739,7.09,7.09,0,0,1-3.675.971A6.535,6.535,0,0,1,56.53,51.072Zm.1-8.667v5.46a4.83,4.83,0,0,0,8.84-2.721,4.819,4.819,0,0,0-1.317-3.467,4.4,4.4,0,0,0-3.363-1.4,4.992,4.992,0,0,0-4.16,2.1Z" transform="translate(36.855 17.771)" fill="#0e1d42"/>
    <rect id="Rectangle_2006" data-name="Rectangle 2006" width="35.83" height="8.962" rx="0.22" transform="translate(3.42 33.308)" fill="#4db4f2"/>
    <rect id="Rectangle_2007" data-name="Rectangle 2007" width="35.83" height="8.962" rx="0.22" transform="translate(3.42 18.487)" fill="#4db4f2"/>
  </g>
</svg>
