<svg xmlns="http://www.w3.org/2000/svg" width="40" height="40" viewBox="0 0 40 40">
  <path id="mnu-next" d="M17.343,0a17.343,17.343,0,1,0,0,34.686,17.141,17.141,0,0,0,8.226-2.032,4.955,4.955,0,0,0,.644.644l4.955,4.955A5.054,5.054,0,1,0,38.3,31.123l-4.955-4.955a4.956,4.956,0,0,0-.793-.644,17.11,17.11,0,0,0,2.18-8.226A17.362,17.362,0,0,0,17.392-.045Zm0,4.955A12.329,12.329,0,0,1,29.731,17.347a12.425,12.425,0,0,1-3.27,8.523l-.149.149a4.955,4.955,0,0,0-.644.644,12.4,12.4,0,0,1-8.374,3.122,12.388,12.388,0,1,1,0-24.776Z" transform="translate(0 0.045)" />
</svg>
