<svg xmlns="http://www.w3.org/2000/svg" viewBox="0 0 71.4 62.8">
  <path d="M32-1.4C17.6,11.2,11,23,11,37.4c0,12,5.8,20,15.4,20,7,0,11-4.4,11-10.8,0-8-9.2-10.6-9.2-19.8,0-6.6,4-13,11.2-20.8Zm38,0C55.6,11.2,49,23,49,37.4c0,12,5.8,20,15.4,20,7,0,11-4.4,11-10.8,0-8-9.2-10.6-9.2-19.8,0-6.6,4-13,11.2-20.8Z" transform="translate(-11 1.4)" fill="#fff"/>
  <path d="M32-1.4C17.6,11.2,11,23,11,37.4c0,12,5.8,20,15.4,20,7,0,11-4.4,11-10.8,0-8-9.2-10.6-9.2-19.8,0-6.6,4-13,11.2-20.8Zm38,0C55.6,11.2,49,23,49,37.4c0,12,5.8,20,15.4,20,7,0,11-4.4,11-10.8,0-8-9.2-10.6-9.2-19.8,0-6.6,4-13,11.2-20.8Z" transform="translate(-6 5.4)" fill="#243746"/>
</svg>
