<svg xmlns="http://www.w3.org/2000/svg" xmlns:xlink="http://www.w3.org/1999/xlink" width="405" height="168" viewBox="0 0 405 168"><defs><clipPath id="a"><rect width="405" height="168" transform="translate(1113 559)" fill="#0e1d42"/></clipPath></defs><g transform="translate(-1113 -559)" clip-path="url(#a)"><g transform="translate(11920.385 12577.174)"><path d="M163.4,36.74l-40.48-23.371L82.445,36.74l40.48,23.371Z" transform="translate(-10768.607 -12031.999)" fill="#c63e1b" stroke="#fff" stroke-width="1"/><path d="M208.168,36.74l-40.48-23.371L127.209,36.74l40.48,23.371Z" transform="translate(-10732.354 -12031.999)" fill="#fbce68" stroke="#fff" stroke-width="1"/><path d="M149.575,65.04h0Z" transform="translate(-10714.24 -11990.152)" fill="#fff" stroke="#fff" stroke-width="1"/><path d="M212.453,60.145h0V60.11l40.48-23.371-40.48-23.371-40.48,23.371,40.48,23.371Z" transform="translate(-10696.101 -12032)" fill="#e57f35" stroke="#fff" stroke-width="1"/><path d="M194.34,85.956v0Z" transform="translate(-10677.987 -12011.068)" fill="#fff" stroke="#fff" stroke-width="1"/><path d="M216.738,36.739l40.48,23.371v0l39.245-22.658V36.026L257.218,13.369Z" transform="translate(-10659.848 -12032)" fill="#245e39" stroke="#fff" stroke-width="1"/><path d="M239.1,85.956v0Z" transform="translate(-10641.733 -12011.068)" fill="#fff" stroke="#fff" stroke-width="1"/><path d="M100.555,26.307l.029-.016-.029-.018L60.047,49.661V96.435l40.508-23.387Z" transform="translate(-10786.747 -12021.55)" fill="#c63e1b" stroke="#fff" stroke-width="1"/><path d="M82.429,73.04l.029.016,40.48-23.371v-.033L82.458,26.282l-.029.016Z" transform="translate(-10768.619 -12021.541)" fill="#e57f35" stroke="#fff" stroke-width="1"/><path d="M122.925,85.955V39.214L82.445,62.584Z" transform="translate(-10768.607 -12011.069)" fill="#245e39" stroke="#fff" stroke-width="1"/><path d="M127.176,26.289l.029.018.029-.018-.029-.016Z" transform="translate(-10732.381 -12021.549)" fill="#fff" stroke="#fff" stroke-width="1"/><path d="M104.811,49.687,145.29,73.058l.029-.016V26.3l-.029-.018L104.811,49.652Z" transform="translate(-10750.493 -12021.542)" fill="#245e39" stroke="#fff" stroke-width="1"/><path d="M104.811,85.955,145.29,62.584,104.811,39.214Z" transform="translate(-10750.493 -12011.069)" fill="#e57f35" stroke="#fff" stroke-width="1"/><path d="M127.193,73.04l.029.016L167.7,49.686v-.033L127.222,26.282l-.029.016Z" transform="translate(-10732.366 -12021.541)" fill="#245e39" stroke="#fff" stroke-width="1"/><path d="M167.689,85.955V39.214l-40.48,23.371Z" transform="translate(-10732.354 -12011.069)" fill="#041533" stroke="#fff" stroke-width="1"/><path d="M171.941,26.289l.029.018.029-.018-.029-.016Z" transform="translate(-10696.127 -12021.549)" fill="#fff" stroke="#fff" stroke-width="1"/><path d="M149.575,49.687l40.48,23.371.029-.016V26.3l-.029-.018-40.48,23.371Z" transform="translate(-10714.24 -12021.542)" fill="#3ca6e0" stroke="#fff" stroke-width="1"/><path d="M149.575,85.955l40.48-23.371-40.48-23.371Z" transform="translate(-10714.24 -12011.069)" fill="#c63e1b" stroke="#fff" stroke-width="1"/><path d="M171.958,73.04l.029.016,40.48-23.371v-.033l-40.48-23.371-.029.016Z" transform="translate(-10696.113 -12021.541)" fill="#d66820" stroke="#fff" stroke-width="1"/><path d="M212.453,85.955V39.214l-40.48,23.371Z" transform="translate(-10696.101 -12011.069)" fill="#c63e1b" stroke="#fff" stroke-width="1"/><path d="M216.706,26.289l.029.018v0l.029-.018-.029-.016Z" transform="translate(-10659.874 -12021.549)" fill="#fff" stroke="#fff" stroke-width="1"/><path d="M194.34,49.687l40.48,23.371.029-.016V26.3l-.029-.018L194.34,49.652Z" transform="translate(-10677.987 -12021.542)" fill="#c63e1b" stroke="#fff" stroke-width="1"/><path d="M194.34,85.955l40.48-23.371L194.34,39.214Z" transform="translate(-10677.987 -12011.069)" fill="#e57f35" stroke="#fff" stroke-width="1"/><path d="M216.722,73.04l.029.016,40.48-23.371v-.033l-40.48-23.371-.029.016Z" transform="translate(-10659.86 -12021.541)" fill="#041533" stroke="#fff" stroke-width="1"/><path d="M257.218,85.955V39.214l-40.48,23.371Z" transform="translate(-10659.847 -12011.069)" fill="#0e669c" stroke="#fff" stroke-width="1"/><path d="M239.1,49.333v.034l39.245,22.658V26.676Z" transform="translate(-10641.733 -12021.223)" fill="#e57f35" stroke="#fff" stroke-width="1"/><path d="M239.1,85.956,278.349,63.3V61.872L239.1,39.214Z" transform="translate(-10641.733 -12011.068)" fill="#3ca6e0" stroke="#fff" stroke-width="1"/><path d="M100.555,88.427,60.047,65.04v.033l40.48,23.371Z" transform="translate(-10786.747 -11990.152)" fill="#fff" stroke="#fff" stroke-width="1"/><path d="M122.908,65.049,82.429,88.42l.029.016,40.48-23.371Z" transform="translate(-10768.619 -11990.145)" fill="#fff" stroke="#fff" stroke-width="1"/><path d="M104.794,65.057l.029.016V65.04Z" transform="translate(-10750.508 -11990.152)" fill="#fff" stroke="#fff" stroke-width="1"/><path d="M100.555,98.893h0V52.117L60.047,75.506Z" transform="translate(-10786.747 -12000.618)" fill="#fbce68" stroke="#fff" stroke-width="1"/><path d="M122.908,75.507,82.429,52.136V98.878Z" transform="translate(-10768.619 -12000.604)" fill="#041533" stroke="#fff" stroke-width="1"/><path d="M82.428,52.151l.029-.016-.029-.018Z" transform="translate(-10768.621 -12000.618)" fill="#fff" stroke="#fff" stroke-width="1"/><path d="M122.937,75.5,82.458,52.127l-.029.016,40.48,23.371Z" transform="translate(-10768.619 -12000.611)" fill="#fff" stroke="#fff" stroke-width="1"/><path d="M104.84,65.049l-.029.016L145.29,88.436l.029-.016Z" transform="translate(-10750.493 -11990.145)" fill="#fff" stroke="#fff" stroke-width="1"/><path d="M167.673,65.049,127.193,88.42l.029.016L167.7,65.065Z" transform="translate(-10732.366 -11990.145)" fill="#fff" stroke="#fff" stroke-width="1"/><path d="M104.81,65.073l.029-.016-.029-.016Z" transform="translate(-10750.494 -11990.152)" fill="#fff" stroke="#fff" stroke-width="1"/><path d="M149.586,65.04l-.025.016.025.016h0V65.04Z" transform="translate(-10714.252 -11990.152)" fill="#fff" stroke="#fff" stroke-width="1"/><path d="M145.307,98.878h0V52.136l-40.48,23.371Z" transform="translate(-10750.48 -12000.604)" fill="#e57f35" stroke="#fff" stroke-width="1"/><path d="M127.193,98.878h0l40.479-23.371L127.193,52.136Z" transform="translate(-10732.366 -12000.604)" fill="#d66820" stroke="#fff" stroke-width="1"/><path d="M127.176,52.135l.029.016v-.034Z" transform="translate(-10732.381 -12000.618)" fill="#fff" stroke="#fff" stroke-width="1"/><path d="M104.84,75.514l40.48-23.371-.029-.016L104.811,75.5Z" transform="translate(-10750.493 -12000.611)" fill="#fff" stroke="#fff" stroke-width="1"/><path d="M127.192,52.151l.029-.016-.029-.018Z" transform="translate(-10732.366 -12000.618)" fill="#fff" stroke="#fff" stroke-width="1"/><path d="M167.673,75.514l.029-.016L127.222,52.127l-.029.016Z" transform="translate(-10732.366 -12000.611)" fill="#fff" stroke="#fff" stroke-width="1"/><path d="M149.6,65.049l-.029.016,40.48,23.371.029-.016Z" transform="translate(-10714.24 -11990.145)" fill="#fff" stroke="#fff" stroke-width="1"/><path d="M212.437,65.049,171.958,88.42l.029.016,40.48-23.371Z" transform="translate(-10696.113 -11990.145)" fill="#fff" stroke="#fff" stroke-width="1"/><path d="M149.576,65.073l.027-.016-.027-.016Z" transform="translate(-10714.24 -11990.152)" fill="#fff" stroke="#fff" stroke-width="1"/><path d="M194.324,65.057l.029.016V65.04Z" transform="translate(-10677.999 -11990.152)" fill="#fff" stroke="#fff" stroke-width="1"/><path d="M190.071,98.878h0V52.136l-40.48,23.371Z" transform="translate(-10714.227 -12000.604)" fill="#245e39" stroke="#fff" stroke-width="1"/><path d="M171.958,98.878h0l40.48-23.371-40.48-23.371Z" transform="translate(-10696.113 -12000.604)" fill="#3ca6e0" stroke="#fff" stroke-width="1"/><path d="M171.941,52.135l.029.016v-.034Z" transform="translate(-10696.127 -12000.618)" fill="#fff" stroke="#fff" stroke-width="1"/><path d="M149.6,75.514l40.48-23.371-.029-.016L149.575,75.5Z" transform="translate(-10714.24 -12000.611)" fill="#fff" stroke="#fff" stroke-width="1"/><path d="M171.958,52.151l.027-.016-.027-.018Z" transform="translate(-10696.113 -12000.618)" fill="#fff" stroke="#fff" stroke-width="1"/><path d="M212.437,75.514l.029-.016-40.48-23.371-.029.016Z" transform="translate(-10696.113 -12000.611)" fill="#fff" stroke="#fff" stroke-width="1"/><path d="M234.848,88.42h0l-40.48-23.371-.029.016,40.48,23.371Z" transform="translate(-10677.987 -11990.145)" fill="#fff" stroke="#fff" stroke-width="1"/><path d="M257.231,65.065l-.029-.016L216.722,88.42l.029.016Z" transform="translate(-10659.86 -11990.145)" fill="#fff" stroke="#fff" stroke-width="1"/><path d="M194.34,65.073l.029-.016-.029-.016Z" transform="translate(-10677.987 -11990.152)" fill="#fff" stroke="#fff" stroke-width="1"/><path d="M239.088,65.057l.029.016V65.04Z" transform="translate(-10641.747 -11990.152)" fill="#fff" stroke="#fff" stroke-width="1"/><path d="M216.722,52.151v0Z" transform="translate(-10659.86 -12000.618)" fill="#fff" stroke="#fff" stroke-width="1"/><path d="M234.835,52.136h0l-40.48,23.371,40.48,23.371Z" transform="translate(-10677.974 -12000.604)" fill="#d66820" stroke="#fff" stroke-width="1"/><path d="M216.722,98.878,257.2,75.507l-40.48-23.371Z" transform="translate(-10659.86 -12000.604)" fill="#fbce68" stroke="#fff" stroke-width="1"/><path d="M216.706,52.135l.029.016v-.034Z" transform="translate(-10659.874 -12000.618)" fill="#fff" stroke="#fff" stroke-width="1"/><path d="M194.369,75.514l40.48-23.371-.029-.016L194.34,75.5Z" transform="translate(-10677.987 -12000.611)" fill="#fff" stroke="#fff" stroke-width="1"/><path d="M216.722,52.151l.029-.016-.029-.018Z" transform="translate(-10659.86 -12000.618)" fill="#fff" stroke="#fff" stroke-width="1"/><path d="M257.2,75.514l.029-.016-40.48-23.371-.029.016Z" transform="translate(-10659.86 -12000.611)" fill="#fff" stroke="#fff" stroke-width="1"/><path d="M239.1,65.065l39.245,22.658v-.033L239.133,65.049Z" transform="translate(-10641.733 -11990.145)" fill="#fff" stroke="#fff" stroke-width="1"/><path d="M239.1,65.073l.029-.016-.029-.016Z" transform="translate(-10641.733 -11990.152)" fill="#fff" stroke="#fff" stroke-width="1"/><path d="M239.12,75.18l39.216,22.641V52.539Z" transform="translate(-10641.72 -12000.276)" fill="#245e39" stroke="#fff" stroke-width="1"/><path d="M239.1,75.179l.029.016,39.216-22.641v-.033Z" transform="translate(-10641.733 -12000.291)" fill="#fff" stroke="#fff" stroke-width="1"/><path d="M78.16,111.8h0V65.058L37.681,88.429,78.16,111.8v46.776l-.029.016.029.016.029-.016-.029-.016Z" transform="translate(-10804.86 -11990.137)" fill="#245e39" stroke="#fff" stroke-width="1"/><path d="M100.526,88.429,60.047,65.058V111.8Z" transform="translate(-10786.747 -11990.137)" fill="#3ca6e0" stroke="#fff" stroke-width="1"/><path d="M104.794,116.747l.029.016.029-.016-.029-.018Z" transform="translate(-10750.508 -11948.291)" fill="#fff" stroke="#fff" stroke-width="1"/><path d="M122.925,65.058,82.445,88.429l40.48,23.371Z" transform="translate(-10768.607 -11990.138)" fill="#0e669c" stroke="#fff" stroke-width="1"/><path d="M104.811,65.058V111.8L145.29,88.429Z" transform="translate(-10750.493 -11990.137)" fill="#3ca6e0" stroke="#fff" stroke-width="1"/><path d="M149.559,116.747l.027.016.029-.016-.029-.018Z" transform="translate(-10714.253 -11948.291)" fill="#fff" stroke="#fff" stroke-width="1"/><path d="M167.689,65.058l-40.48,23.371,40.48,23.371Z" transform="translate(-10732.354 -11990.138)" fill="#0e669c" stroke="#fff" stroke-width="1"/><path d="M149.575,65.058h0Z" transform="translate(-10714.24 -11990.138)" fill="#fff" stroke="#fff" stroke-width="1"/><path d="M149.575,65.058V111.8l40.48-23.371Z" transform="translate(-10714.24 -11990.137)" fill="#245e39" stroke="#fff" stroke-width="1"/><path d="M194.324,116.747l.029.016.029-.016-.029-.018Z" transform="translate(-10677.999 -11948.291)" fill="#fff" stroke="#fff" stroke-width="1"/><path d="M194.34,111.8v0Z" transform="translate(-10677.986 -11990.137)" fill="#fff" stroke="#fff" stroke-width="1"/><path d="M212.453,65.058h0l-40.48,23.371,40.48,23.371Z" transform="translate(-10696.101 -11990.137)" fill="#fbce68" stroke="#fff" stroke-width="1"/><path d="M194.34,111.8l40.48-23.371L194.34,65.058Z" transform="translate(-10677.987 -11990.137)" fill="#0e669c" stroke="#fff" stroke-width="1"/><path d="M239.088,116.747l.029.016.029-.016-.029-.018Z" transform="translate(-10641.747 -11948.291)" fill="#fff" stroke="#fff" stroke-width="1"/><path d="M239.1,111.8v0Z" transform="translate(-10641.733 -11990.137)" fill="#fff" stroke="#fff" stroke-width="1"/><path d="M257.218,65.058l-40.48,23.371,40.48,23.371Z" transform="translate(-10659.847 -11990.137)" fill="#e57f35" stroke="#fff" stroke-width="1"/><path d="M239.1,111.8l39.245-22.658V87.716L239.1,65.058Z" transform="translate(-10641.733 -11990.137)" fill="#d66820" stroke="#fff" stroke-width="1"/><path d="M55.791,78l.029-.016-.029-.018L15.282,101.351v46.774l40.508,23.389,40.48-23.371-40.48-23.371Z" transform="translate(-10823 -11979.688)" fill="#e57f35" stroke="#fff" stroke-width="1"/><path d="M78.173,101.342,37.694,77.971l-.029.016v46.776l40.48,23.371.029-.016Z" transform="translate(-10804.873 -11979.68)" fill="#0e669c" stroke="#fff" stroke-width="1"/><path d="M60.063,127.2l40.48,23.371L141.022,127.2l-40.479-23.371Z" transform="translate(-10786.733 -11958.742)" fill="#041533" stroke="#fff" stroke-width="1"/><path d="M82.412,77.979l.029.016v-.033Z" transform="translate(-10768.633 -11979.688)" fill="#fff" stroke="#fff" stroke-width="1"/><path d="M82.428,78l.029-.016-.029-.016Z" transform="translate(-10768.621 -11979.688)" fill="#fff" stroke="#fff" stroke-width="1"/><path d="M100.555,114.272,60.047,90.885v46.774l.029.018,40.48-23.373Z" transform="translate(-10786.747 -11969.222)" fill="#245e39" stroke="#fff" stroke-width="1"/><path d="M100.526,77.971l-40.48,23.371,40.508,23.389V77.988Z" transform="translate(-10786.747 -11979.681)" fill="#d66820" stroke="#fff" stroke-width="1"/><path d="M122.937,90.91l-.029-.016-40.48,23.371v.033l40.48,23.371.029-.016Z" transform="translate(-10768.619 -11969.215)" fill="#3ca6e0" stroke="#fff" stroke-width="1"/><path d="M104.794,90.9l.029.018v-.034Z" transform="translate(-10750.508 -11969.222)" fill="#fff" stroke="#fff" stroke-width="1"/><path d="M82.429,77.981h0v46.742l40.48-23.371Z" transform="translate(-10768.619 -11979.673)" fill="#c63e1b" stroke="#fff" stroke-width="1"/><path d="M122.937,101.342,82.458,77.971l-.029.016,40.48,23.371Z" transform="translate(-10768.619 -11979.68)" fill="#fff" stroke="#fff" stroke-width="1"/><path d="M104.827,127.2l40.48,23.371,40.48-23.371-40.48-23.371Z" transform="translate(-10750.48 -11958.742)" fill="#d66820" stroke="#fff" stroke-width="1"/><path d="M127.176,77.979l.029.016v-.033Z" transform="translate(-10732.381 -11979.688)" fill="#fff" stroke="#fff" stroke-width="1"/><path d="M127.192,78l.029-.016-.029-.016Z" transform="translate(-10732.366 -11979.688)" fill="#fff" stroke="#fff" stroke-width="1"/><path d="M145.32,114.265,104.84,90.894l-.029.016v46.742l.029.018L145.32,114.3Z" transform="translate(-10750.493 -11969.215)" fill="#c63e1b" stroke="#fff" stroke-width="1"/><path d="M104.81,90.919l.029-.018-.029-.016Z" transform="translate(-10750.494 -11969.222)" fill="#fff" stroke="#fff" stroke-width="1"/><path d="M104.827,101.351l40.48,23.371V77.981Z" transform="translate(-10750.48 -11979.673)" fill="#245e39" stroke="#fff" stroke-width="1"/><path d="M145.32,77.988l-.029-.016-40.479,23.371.029.016Z" transform="translate(-10750.493 -11979.68)" fill="#fff" stroke="#fff" stroke-width="1"/><path d="M167.7,90.91l-.029-.016-40.48,23.371v.033l40.48,23.371.029-.016Z" transform="translate(-10732.366 -11969.215)" fill="#0e669c" stroke="#fff" stroke-width="1"/><path d="M149.559,90.9l.027.018v-.034Z" transform="translate(-10714.253 -11969.222)" fill="#fff" stroke="#fff" stroke-width="1"/><path d="M127.193,77.981v46.742l40.479-23.371Z" transform="translate(-10732.366 -11979.673)" fill="#3ca6e0" stroke="#fff" stroke-width="1"/><path d="M167.7,101.342l-40.48-23.371-.029.016,40.48,23.371Z" transform="translate(-10732.366 -11979.68)" fill="#fff" stroke="#fff" stroke-width="1"/><path d="M149.591,127.2l40.48,23.371L230.55,127.2l-40.48-23.371Z" transform="translate(-10714.227 -11958.742)" fill="#d66820" stroke="#fff" stroke-width="1"/><path d="M171.941,77.979l.029.016v-.033Z" transform="translate(-10696.127 -11979.688)" fill="#fff" stroke="#fff" stroke-width="1"/><path d="M171.958,78l.027-.016-.027-.016Z" transform="translate(-10696.113 -11979.688)" fill="#fff" stroke="#fff" stroke-width="1"/><path d="M190.084,114.265,149.6,90.894l-.029.016v46.742l.029.018,40.48-23.373Z" transform="translate(-10714.24 -11969.215)" fill="#c63e1b" stroke="#fff" stroke-width="1"/><path d="M149.575,90.885v.034h0l.027-.018-.027-.016Z" transform="translate(-10714.241 -11969.222)" fill="#fff" stroke="#fff" stroke-width="1"/><path d="M149.575,90.885h0Z" transform="translate(-10714.24 -11969.222)" fill="#fff" stroke="#fff" stroke-width="1"/><path d="M149.591,101.351l40.48,23.371V77.981Z" transform="translate(-10714.227 -11979.673)" fill="#d66820" stroke="#fff" stroke-width="1"/><path d="M190.084,77.988l-.029-.016-40.48,23.371.029.016Z" transform="translate(-10714.24 -11979.68)" fill="#fff" stroke="#fff" stroke-width="1"/><path d="M212.466,90.91l-.029-.016-40.48,23.371v.033l40.48,23.371.029-.016Z" transform="translate(-10696.112 -11969.215)" fill="#c63e1b" stroke="#fff" stroke-width="1"/><path d="M194.324,90.9l.029.018v-.034Z" transform="translate(-10677.999 -11969.222)" fill="#fff" stroke="#fff" stroke-width="1"/><path d="M171.958,77.981v46.742l40.48-23.371Z" transform="translate(-10696.113 -11979.673)" fill="#245e39" stroke="#fff" stroke-width="1"/><path d="M212.466,101.342l-40.48-23.371-.029.016,40.48,23.371Z" transform="translate(-10696.112 -11979.68)" fill="#fff" stroke="#fff" stroke-width="1"/><path d="M234.835,103.807h0v.033l-40.48,23.373,40.48,23.371,40.48-23.371-40.48-23.371Z" transform="translate(-10677.974 -11958.756)" fill="#fbce68" stroke="#fff" stroke-width="1"/><path d="M216.722,124.723v0Z" transform="translate(-10659.86 -11979.672)" fill="#fff" stroke="#fff" stroke-width="1"/><path d="M216.706,77.979l.029.016v-.033Z" transform="translate(-10659.874 -11979.688)" fill="#fff" stroke="#fff" stroke-width="1"/><path d="M216.722,78l.029-.016-.029-.016Z" transform="translate(-10659.86 -11979.688)" fill="#fff" stroke="#fff" stroke-width="1"/><path d="M234.848,114.265l-40.48-23.371-.029.016v46.742l.029.018,40.48-23.373Z" transform="translate(-10677.987 -11969.215)" fill="#c63e1b" stroke="#fff" stroke-width="1"/><path d="M194.34,90.919l.029-.018-.029-.016Z" transform="translate(-10677.987 -11969.222)" fill="#fff" stroke="#fff" stroke-width="1"/><path d="M194.356,101.351l40.48,23.371V77.981Z" transform="translate(-10677.974 -11979.673)" fill="#d66820" stroke="#fff" stroke-width="1"/><path d="M234.848,77.988l-.029-.016-40.48,23.371.029.016Z" transform="translate(-10677.987 -11979.68)" fill="#fff" stroke="#fff" stroke-width="1"/><path d="M257.231,90.91l-.029-.016-40.48,23.371v.033l40.48,23.371.029-.016Z" transform="translate(-10659.86 -11969.215)" fill="#245e39" stroke="#fff" stroke-width="1"/><path d="M239.088,90.9l.029.018v-.034Z" transform="translate(-10641.747 -11969.222)" fill="#fff" stroke="#fff" stroke-width="1"/><path d="M216.722,77.981v46.742l40.48-23.371Z" transform="translate(-10659.86 -11979.673)" fill="#c63e1b" stroke="#fff" stroke-width="1"/><path d="M216.751,77.971l-.029.016,40.48,23.371.029-.016Z" transform="translate(-10659.86 -11979.681)" fill="#fff" stroke="#fff" stroke-width="1"/><path d="M239.12,126.87l39.216,22.64V104.229Z" transform="translate(-10641.72 -11958.415)" fill="#d66820" stroke="#fff" stroke-width="1"/><path d="M239.1,90.911v46.742l.029.016,39.216-22.641v-1.493L239.133,90.893Z" transform="translate(-10641.733 -11969.215)" fill="#e57f35" stroke="#fff" stroke-width="1"/><path d="M239.1,90.919l.029-.018-.029-.016Z" transform="translate(-10641.733 -11969.222)" fill="#fff" stroke="#fff" stroke-width="1"/><path d="M239.12,101.025l39.216,22.641V78.383Z" transform="translate(-10641.72 -11979.347)" fill="#0e669c" stroke="#fff" stroke-width="1"/><path d="M239.1,101.023l.029.016L278.349,78.4v-.033Z" transform="translate(-10641.733 -11979.36)" fill="#fff" stroke="#fff" stroke-width="1"/></g></g></svg>