<svg xmlns="http://www.w3.org/2000/svg" xmlns:xlink="http://www.w3.org/1999/xlink" width="360" height="357" viewBox="0 0 360 357">
  <defs>
    <clipPath id="clip-loader">
      <rect width="360" height="357"/>
    </clipPath>
  </defs>
  <g id="loader" clip-path="url(#clip-loader)">
    <g id="Group_1220" data-name="Group 1220">
      <g id="Path_1710" data-name="Path 1710" transform="translate(124.658 215.314) rotate(180)" fill="none">
        <path d="M70.977,136.869a17.69,17.69,0,0,0,25.942-4.276,178.929,178.929,0,0,0,27.739-95.972,181.4,181.4,0,0,0-1.221-21.052A17.7,17.7,0,0,0,101.852.458L21.8,18.9A17.853,17.853,0,0,0,8.048,36.475v.147a62.846,62.846,0,0,1-6.24,27.387,17.811,17.811,0,0,0,4.856,21.74Z" stroke="none"/>
        <path d="M 82.04283142089844 136.7353363037109 C 86.75344085693359 136.7353363037109 91.05098724365234 134.3873748779297 93.53872680664062 130.4545745849609 C 102.2347869873047 116.7067260742188 108.9636611938477 101.8503570556641 113.5384216308594 86.29815673828125 C 118.2625503540039 70.23809051513672 120.6578979492188 53.52435302734375 120.6578979492188 36.62120056152344 C 120.6578979492188 29.7433967590332 120.2561416625977 22.81668090820312 119.4637451171875 16.0329418182373 C 119.0728988647461 12.68276691436768 117.4539642333984 9.616006851196289 114.905158996582 7.39759349822998 C 112.3879013061523 5.206614971160889 109.1764831542969 4.000006198883057 105.8625106811523 4.000006198883057 C 104.8231582641602 4.000006198883057 103.7758560180664 4.119810581207275 102.7499847412109 4.356028079986572 L 22.69352912902832 22.79672431945801 C 21.1478328704834 23.15278816223145 19.69503021240234 23.76605033874512 18.37546348571777 24.61944198608398 C 17.09192085266113 25.44955062866211 15.9606819152832 26.48844146728516 15.01318168640137 27.70728874206543 C 13.09335517883301 30.17687606811523 12.04033374786377 33.28704833984375 12.04807281494141 36.46492004394531 L 12.04809474945068 36.62120056152344 C 12.04809474945068 46.8186149597168 9.814811706542969 56.61785507202148 5.410224914550781 65.74683380126953 C 4.037703037261963 68.59137725830078 3.653290271759033 71.83735656738281 4.327790260314941 74.88683319091797 C 4.66068172454834 76.39179229736328 5.236681461334229 77.81472015380859 6.039812088012695 79.11611175537109 C 6.865029335021973 80.45328521728516 7.912398815155029 81.63124847412109 9.15285587310791 82.61724853515625 L 73.46620178222656 133.7373809814453 C 75.93346405029297 135.6985321044922 78.89903259277344 136.7351989746094 82.04244232177734 136.7353363037109 L 82.04283142089844 136.7353363037109 M 82.04215240478516 140.7353210449219 C 78.17276763916016 140.7351837158203 74.26136779785156 139.4791412353516 70.97722625732422 136.86865234375 L 6.663898944854736 85.74855041503906 C 0.1245728060603142 80.55063629150391 -1.822579383850098 71.53220367431641 1.807681441307068 64.00855255126953 C 5.804877281188965 55.72391891479492 8.048094749450684 46.43659210205078 8.048094749450684 36.62120056152344 L 8.048094749450684 36.47465896606445 C 8.027703285217285 28.1036376953125 13.63815975189209 20.77800559997559 21.79557228088379 18.89881134033203 L 101.8521194458008 0.4580933451652527 C 112.1042633056641 -1.902559041976929 122.2176208496094 5.119224548339844 123.4367904663086 15.56941986083984 C 124.2434005737305 22.47472381591797 124.6578979492188 29.49942016601562 124.6578979492188 36.62120056152344 C 124.6578979492188 71.91170501708984 114.4853134155273 104.8221588134766 96.91920471191406 132.5928802490234 C 93.55542755126953 137.9105682373047 87.84563446044922 140.7355346679688 82.04215240478516 140.7353210449219 Z" stroke="none" fill="#3ea4de"/>
      </g>
      <g id="Path_1712" data-name="Path 1712" transform="translate(156.966 117.074) rotate(-77.141)" fill="none">
        <path d="M70.977,136.869a17.69,17.69,0,0,0,25.942-4.276,178.929,178.929,0,0,0,27.739-95.972,181.4,181.4,0,0,0-1.221-21.052A17.7,17.7,0,0,0,101.852.458L21.8,18.9A17.853,17.853,0,0,0,8.048,36.475v.147a62.846,62.846,0,0,1-6.24,27.387,17.811,17.811,0,0,0,4.856,21.74Z" stroke="none"/>
        <path d="M 82.04285430908203 136.7352294921875 C 86.75346374511719 136.7352294921875 91.05103302001953 134.3872680664062 93.53877258300781 130.4544830322266 C 102.2348327636719 116.7066421508789 108.9637298583984 101.8502731323242 113.5384674072266 86.298095703125 C 118.2626190185547 70.23802947998047 120.6579666137695 53.5242919921875 120.6579666137695 36.62116241455078 C 120.6579666137695 29.74342346191406 120.2562255859375 22.81672859191895 119.4638366699219 16.03294563293457 C 119.0729675292969 12.68274974822998 117.4540100097656 9.615988731384277 114.9052047729492 7.397575855255127 C 112.3879470825195 5.206597328186035 109.1765518188477 3.999988794326782 105.8625717163086 3.999988794326782 C 104.8232269287109 3.999988794326782 103.7759017944336 4.119792938232422 102.7500305175781 4.356010437011719 L 22.69355201721191 22.79670715332031 C 21.14785575866699 23.15277099609375 19.69505310058594 23.76603317260742 18.37546539306641 24.61942291259766 C 17.09192085266113 25.44953155517578 15.96068286895752 26.48842430114746 15.01318264007568 27.70727157592773 C 13.09335613250732 30.17685890197754 12.04033470153809 33.28703308105469 12.04807376861572 36.46490097045898 L 12.048095703125 36.62118530273438 C 12.048095703125 46.81853103637695 9.814812660217285 56.61777114868164 5.410226345062256 65.74679565429688 C 4.037704467773438 68.59133911132812 3.65329122543335 71.83731842041016 4.327791213989258 74.88679504394531 C 4.660660743713379 76.39174652099609 5.236660957336426 77.81468200683594 6.039813041687012 79.11605072021484 C 6.86500883102417 80.45322418212891 7.912400245666504 81.63118743896484 9.152856826782227 82.6171875 L 73.46622467041016 133.7372436523438 C 75.93348693847656 135.6984252929688 78.89907073974609 136.7350921630859 82.04246520996094 136.7352294921875 L 82.04285430908203 136.7352294921875 M 82.04219055175781 140.7352142333984 C 78.17280578613281 140.7350769042969 74.26139831542969 139.4790344238281 70.97724914550781 136.8685607910156 L 6.663899898529053 85.74848937988281 C 0.1245739534497261 80.55059814453125 -1.82260000705719 71.53216552734375 1.807682633399963 64.00850677490234 C 5.804856777191162 55.72388076782227 8.048095703125 46.43655395507812 8.048095703125 36.62118530273438 L 8.048095703125 36.47463989257812 C 8.027704238891602 28.10361862182617 13.63816070556641 20.77798843383789 21.79559516906738 18.8987922668457 L 101.8521575927734 0.4580757915973663 C 112.1043548583984 -1.902578473091125 122.2176666259766 5.119207382202148 123.436882019043 15.56940174102783 C 124.2434616088867 22.47470664978027 124.6579666137695 29.4994010925293 124.6579666137695 36.62116241455078 C 124.6579666137695 71.91164398193359 114.4853591918945 104.8220748901367 96.91925048828125 132.5927886962891 C 93.55545806884766 137.9104614257812 87.84568023681641 140.7354431152344 82.04219055175781 140.7352142333984 Z" stroke="none" fill="#3ea4de"/>
      </g>
      <g id="Path_1713" data-name="Path 1713" transform="translate(359.981 215.314) rotate(180)" fill="none">
        <path d="M117.994,85.749a17.812,17.812,0,0,0,4.856-21.741,62.855,62.855,0,0,1-6.24-27.386c0-.05,0-.1,0-.147A17.854,17.854,0,0,0,102.862,18.9L22.806.458A17.7,17.7,0,0,0,1.221,15.569,181.611,181.611,0,0,0,0,36.622a178.926,178.926,0,0,0,27.739,95.971,17.689,17.689,0,0,0,25.942,4.277Z" stroke="none"/>
        <path d="M 42.61745452880859 136.7355499267578 C 45.7594108581543 136.7355499267578 48.72432327270508 135.6988983154297 51.19169616699219 133.7376708984375 L 115.5049743652344 82.61756896972656 C 116.7454528808594 81.63156890869141 117.7928466796875 80.45359039306641 118.6180648803711 79.11641693115234 C 119.4211959838867 77.81500244140625 119.9972152709961 76.39202880859375 120.3300857543945 74.88702392578125 C 121.0046081542969 71.83737182617188 120.6201705932617 68.59102630615234 119.2475433349609 65.74589538574219 C 114.8430404663086 56.61598205566406 112.6097793579102 46.81713485717773 112.6097793579102 36.62152481079102 C 112.6097793579102 36.56030654907227 112.6099624633789 36.50005722045898 112.6107940673828 36.44001007080078 C 112.6124877929688 33.27071762084961 111.5596694946289 30.17037010192871 109.6448440551758 27.70724296569824 C 108.6972579956055 26.48830795288086 107.5660171508789 25.44941711425781 106.2825012207031 24.6193733215332 C 104.9629745483398 23.76606941223145 103.5102844238281 23.1529598236084 101.9643936157227 22.79702568054199 L 21.90789031982422 4.356307983398438 C 20.88152122497559 4.119873046875 19.83402061462402 4.000003814697266 18.79449844360352 4.000003814697266 C 15.48084735870361 4.000003814697266 12.26978206634521 5.20659065246582 9.752781867980957 7.397481918334961 C 7.204259872436523 9.615808486938477 5.58530330657959 12.68250370025635 5.194151401519775 16.03228569030762 C 4.401781558990479 22.82389450073242 3.999999046325684 29.75113487243652 3.999999046325684 36.62152481079102 C 3.999999046325684 53.52435302734375 6.395325183868408 70.2379150390625 11.11947727203369 86.29795837402344 C 15.69430351257324 101.8504409790039 22.42315101623535 116.7066345214844 31.11921691894531 130.4540100097656 C 33.60680389404297 134.3869323730469 37.90480422973633 136.7351837158203 42.61686706542969 136.7355499267578 L 42.61745452880859 136.7355499267578 M 42.61605072021484 140.7355499267578 C 36.81318664550781 140.7350769042969 31.10213279724121 137.909912109375 27.73867225646973 132.5921936035156 C 10.17256450653076 104.8224182128906 -9.407374932379753e-07 71.91102600097656 -9.407374932379753e-07 36.62152481079102 C -9.407374932379753e-07 29.49876403808594 0.4154555797576904 22.47406959533691 1.221107721328735 15.5687427520752 C 2.441216707229614 5.11952543258667 12.55360889434814 -1.90323531627655 22.80575942993164 0.4583732187747955 L 102.8622589111328 18.89908981323242 C 111.0197372436523 20.77735137939453 116.6301727294922 28.10391616821289 116.6107635498047 36.47493743896484 C 116.6097793579102 36.52346038818359 116.6097793579102 36.57200241088867 116.6097793579102 36.62152481079102 C 116.6097793579102 46.43591690063477 118.8539810180664 55.72422027587891 122.8502197265625 64.00787353515625 C 126.4804763793945 71.53247833251953 124.5333251953125 80.55094146728516 117.9939575195312 85.74887084960938 L 53.6806526184082 136.8689880371094 C 50.39600372314453 139.4798431396484 46.48600769042969 140.7358551025391 42.61605072021484 140.7355499267578 Z" stroke="none" fill="#3ea4de"/>
      </g>
      <g id="Path_1711" data-name="Path 1711" transform="translate(117.532 159.209) rotate(-128.571)" fill="none">
        <path d="M70.977,136.869a17.69,17.69,0,0,0,25.942-4.276,178.929,178.929,0,0,0,27.739-95.972,181.4,181.4,0,0,0-1.221-21.052A17.7,17.7,0,0,0,101.852.458L21.8,18.9A17.853,17.853,0,0,0,8.048,36.475v.147a62.846,62.846,0,0,1-6.24,27.387,17.811,17.811,0,0,0,4.856,21.74Z" stroke="none"/>
        <path d="M 82.04291534423828 136.7352905273438 C 86.75352478027344 136.7352905273438 91.05107116699219 134.3873443603516 93.53881072998047 130.4545593261719 C 102.2348785400391 116.7067108154297 108.9637451171875 101.8503646850586 113.5385055541992 86.29816436767578 C 118.2626342773438 70.23812103271484 120.657958984375 53.52438354492188 120.657958984375 36.62123107910156 C 120.657958984375 29.74360084533691 120.2562026977539 22.8169059753418 119.4638137817383 16.0329704284668 C 119.0729446411133 12.68279647827148 117.4540023803711 9.616035461425781 114.9052047729492 7.397622585296631 C 112.387939453125 5.206644535064697 109.1765289306641 4.000035762786865 105.862548828125 4.000035762786865 C 104.8232040405273 4.000035762786865 103.7758941650391 4.119840145111084 102.7500305175781 4.356057643890381 L 22.69355010986328 22.79670906066895 C 21.14785385131836 23.15277481079102 19.69504928588867 23.76603507995605 18.37546348571777 24.61942672729492 C 17.0919189453125 25.44953536987305 15.96068000793457 26.48842620849609 15.01317977905273 27.707275390625 C 13.09337520599365 30.1768627166748 12.04035377502441 33.28703689575195 12.04807090759277 36.46490478515625 L 12.04809284210205 36.62118911743164 C 12.04811477661133 46.81858062744141 9.814831733703613 56.61783981323242 5.410245418548584 65.74679565429688 C 4.037723541259766 68.59133911132812 3.653310298919678 71.83731842041016 4.327810287475586 74.88679504394531 C 4.660701751708984 76.39175415039062 5.236701488494873 77.81468963623047 6.03983211517334 79.11608123779297 C 6.865049362182617 80.45325469970703 7.912440776824951 81.63121032714844 9.152897834777832 82.61721038818359 L 73.46627044677734 133.7373199462891 C 75.93352508544922 135.698486328125 78.89911651611328 136.7351684570312 82.04252624511719 136.7352905273438 L 82.04291534423828 136.7352905273438 M 82.04225158691406 140.7352905273438 C 78.17286682128906 140.7351531982422 74.26143646240234 139.4791107177734 70.97728729248047 136.8686218261719 L 6.663940906524658 85.74851226806641 C 0.1245930269360542 80.55062103271484 -1.822559118270874 71.53216552734375 1.807701706886292 64.00851440429688 C 5.804897308349609 55.72390365600586 8.048114776611328 46.43658065795898 8.048092842102051 36.62118911743164 L 8.048092842102051 36.47464370727539 C 8.02772331237793 28.10362243652344 13.63815784454346 20.77799224853516 21.79559326171875 18.89879608154297 L 101.8521575927734 0.4581227004528046 C 112.1043243408203 -1.90252959728241 122.2176666259766 5.119253158569336 123.4368515014648 15.56944847106934 C 124.2434387207031 22.47475242614746 124.657958984375 29.49944877624512 124.657958984375 36.62123107910156 C 124.6579818725586 71.91171264648438 114.4853973388672 104.8221664428711 96.91928863525391 132.5928649902344 C 93.55551147460938 137.9105529785156 87.84574127197266 140.7355194091797 82.04225158691406 140.7352905273438 Z" stroke="none" fill="#3ea4de"/>
      </g>
      <g id="Path_1707" data-name="Path 1707" transform="translate(2.251 223.389) rotate(-25.711)" fill="none">
        <path d="M117.994,85.749a17.812,17.812,0,0,0,4.856-21.741,62.855,62.855,0,0,1-6.24-27.386c0-.05,0-.1,0-.147A17.854,17.854,0,0,0,102.862,18.9L22.806.458A17.7,17.7,0,0,0,1.221,15.569,181.611,181.611,0,0,0,0,36.622a178.926,178.926,0,0,0,27.739,95.971,17.689,17.689,0,0,0,25.942,4.277Z" stroke="none"/>
        <path d="M 42.61740112304688 136.7355041503906 C 45.75935745239258 136.7355041503906 48.72429275512695 135.6988525390625 51.1916618347168 133.7376251220703 L 115.5049667358398 82.61753082275391 C 116.7454452514648 81.63153076171875 117.792839050293 80.45355224609375 118.618049621582 79.11637878417969 C 119.4211807250977 77.81496429443359 119.9972076416016 76.39199066162109 120.330078125 74.88698577880859 C 121.0045928955078 71.83733367919922 120.6201629638672 68.59098815917969 119.2475280761719 65.74585723876953 C 114.8430557250977 56.61598968505859 112.6097946166992 46.81711959838867 112.6097946166992 36.62148666381836 C 112.6097946166992 36.56028366088867 112.6099700927734 36.50005722045898 112.6108093261719 36.44001770019531 C 112.6124954223633 33.27072525024414 111.5596771240234 30.17033386230469 109.6448593139648 27.70720672607422 C 108.6972732543945 26.48827171325684 107.566032409668 25.44937896728516 106.2825088500977 24.61933708190918 C 104.9629898071289 23.76603126525879 103.5102920532227 23.15292358398438 101.9644012451172 22.79698753356934 L 21.90789985656738 4.356314659118652 C 20.88153076171875 4.119879722595215 19.83403015136719 4.000010013580322 18.79448699951172 4.000010013580322 C 15.48083591461182 4.000010013580322 12.26974868774414 5.206597328186035 9.75277042388916 7.397466659545898 C 7.204248428344727 9.615814208984375 5.585291862487793 12.68248844146729 5.194139957427979 16.03227043151855 C 4.401770114898682 22.82387924194336 3.999987602233887 29.75111961364746 3.999987602233887 36.62150955200195 C 3.999987602233887 53.52435684204102 6.395313739776611 70.23792266845703 11.11944389343262 86.29794311523438 C 15.69427013397217 101.8504486083984 22.42311859130859 116.7066192626953 31.11918258666992 130.4539947509766 C 33.60676956176758 134.3869018554688 37.90474700927734 136.7351379394531 42.61681365966797 136.7355041503906 L 42.61740112304688 136.7355041503906 M 42.61598587036133 140.7355194091797 C 36.81311798095703 140.7350616455078 31.10210037231445 137.9098968505859 27.73863983154297 132.5921783447266 C 10.17253112792969 104.8224029541016 -1.238482946064323e-05 71.91103363037109 -1.238482946064323e-05 36.62150955200195 C -1.238482946064323e-05 29.49874877929688 0.4154441356658936 22.47405433654785 1.221096277236938 15.56872749328613 C 2.441226720809937 5.119531631469727 12.5535945892334 -1.903250813484192 22.80577087402344 0.458379715681076 L 102.8622665405273 18.8990535736084 C 111.0197448730469 20.77731513977051 116.6301803588867 28.10387992858887 116.6107711791992 36.47490310668945 C 116.6097946166992 36.52344512939453 116.6097946166992 36.57196807861328 116.6097946166992 36.62148666381836 C 116.6097946166992 46.43587875366211 118.8539657592773 55.72418594360352 122.8502044677734 64.00783538818359 C 126.48046875 71.53244781494141 124.5333099365234 80.5509033203125 117.9939422607422 85.74883270263672 L 53.68061828613281 136.8689270019531 C 50.39596939086914 139.4797973632812 46.48593902587891 140.7358093261719 42.61598587036133 140.7355194091797 Z" stroke="none" fill="#3ea4de"/>
      </g>
      <g id="Path_1708" data-name="Path 1708" transform="translate(264.892 342.143) rotate(-128.571)" fill="none">
        <path d="M117.994,85.749a17.812,17.812,0,0,0,4.856-21.741,62.855,62.855,0,0,1-6.24-27.386c0-.05,0-.1,0-.147A17.854,17.854,0,0,0,102.862,18.9L22.806.458A17.7,17.7,0,0,0,1.221,15.569,181.611,181.611,0,0,0,0,36.622a178.926,178.926,0,0,0,27.739,95.971,17.689,17.689,0,0,0,25.942,4.277Z" stroke="none"/>
        <path d="M 42.61749267578125 136.7355041503906 C 45.75944900512695 136.7355041503906 48.72438430786133 135.6988525390625 51.19175338745117 133.7376403808594 L 115.5050582885742 82.61756896972656 C 116.7455368041992 81.63154602050781 117.7929306030273 80.45361328125 118.6181488037109 79.11643981933594 C 119.4212799072266 77.81502532958984 119.9972763061523 76.39204406738281 120.3301696777344 74.88704681396484 C 121.0046920776367 71.83739471435547 120.620231628418 68.59104919433594 119.2476043701172 65.74591827392578 C 114.8431015014648 56.61600112915039 112.6098403930664 46.81715393066406 112.6098403930664 36.62154769897461 C 112.6098403930664 36.56032562255859 112.6100234985352 36.50007629394531 112.6108551025391 36.44003295898438 C 112.612548828125 33.27075958251953 111.5597305297852 30.17039108276367 109.644905090332 27.7072639465332 C 108.6973190307617 26.48832893371582 107.5660552978516 25.44943809509277 106.2825622558594 24.61939430236816 C 104.9630355834961 23.76609039306641 103.5103225708008 23.15298080444336 101.9644470214844 22.79704666137695 L 21.90790748596191 4.35632848739624 C 20.88153648376465 4.119894027709961 19.83403778076172 4.000024318695068 18.79449462890625 4.000024318695068 C 15.48084163665771 4.000024318695068 12.26975440979004 5.206589698791504 9.752776145935059 7.397480964660645 C 7.204254627227783 9.615806579589844 5.58529806137085 12.68250274658203 5.194145679473877 16.03228569030762 C 4.401776313781738 22.82376289367676 4.000015258789062 29.75098037719727 4.000015258789062 36.62150192260742 C 4.000015258789062 53.52433013916016 6.395363330841064 70.23789215087891 11.11949348449707 86.29793548583984 C 15.6943416595459 101.8503952026367 22.4232120513916 116.7065887451172 31.11927604675293 130.4539794921875 C 33.60686492919922 134.3868865966797 37.90484237670898 136.7351379394531 42.61690521240234 136.7355041503906 L 42.61749267578125 136.7355041503906 M 42.6160888671875 140.7355041503906 C 36.8132209777832 140.7350463867188 31.10219383239746 137.9098815917969 27.73873329162598 132.5921783447266 C 10.17260265350342 104.8223724365234 1.546710518596228e-05 71.91100311279297 1.546710518596228e-05 36.62150192260742 C 1.546710518596228e-05 29.49874114990234 0.415450245141983 22.47404670715332 1.221102476119995 15.56874179840088 C 2.441233158111572 5.119524002075195 12.5535945892334 -1.903236627578735 22.80577659606934 0.4583938121795654 L 102.8623199462891 18.89911079406738 C 111.019775390625 20.77737236022949 116.6302337646484 28.10393714904785 116.6108169555664 36.47496032714844 C 116.6098403930664 36.52347946166992 116.6098403930664 36.57202529907227 116.6098403930664 36.62154769897461 C 116.6098403930664 46.43593597412109 118.8540344238281 55.7242431640625 122.8502731323242 64.00789642333984 C 126.4805374145508 71.53250122070312 124.5334091186523 80.55095672607422 117.9940185546875 85.74887084960938 L 53.68070983886719 136.8689422607422 C 50.39606094360352 139.4797973632812 46.48604202270508 140.7358093261719 42.6160888671875 140.7355041503906 Z" stroke="none" fill="#3ea4de"/>
      </g>
      <g id="Path_1709" data-name="Path 1709" transform="translate(105.073 344.68) rotate(-77.141)" fill="none">
        <path d="M117.994,85.749a17.812,17.812,0,0,0,4.856-21.741,62.855,62.855,0,0,1-6.24-27.386c0-.05,0-.1,0-.147A17.854,17.854,0,0,0,102.862,18.9L22.806.458A17.7,17.7,0,0,0,1.221,15.569,181.611,181.611,0,0,0,0,36.621a178.926,178.926,0,0,0,27.739,95.971,17.689,17.689,0,0,0,25.942,4.277Z" stroke="none"/>
        <path d="M 42.61746215820312 136.7354583740234 C 45.75939559936523 136.7354583740234 48.72433090209961 135.6988067626953 51.19169998168945 133.7375946044922 L 115.5050506591797 82.61750030517578 C 116.7455291748047 81.63147735595703 117.7929153442383 80.45352172851562 118.6181335449219 79.11634826660156 C 119.4212646484375 77.81493377685547 119.9972839355469 76.39196014404297 120.3301544189453 74.88695526123047 C 121.0046768188477 71.83730316162109 120.620246887207 68.59095764160156 119.2475891113281 65.745849609375 C 114.8431091308594 56.61591339111328 112.6098556518555 46.81706619262695 112.6098556518555 36.62147903442383 C 112.6098556518555 36.56027603149414 112.6100311279297 36.50004959106445 112.6108627319336 36.44001007080078 C 112.6125564575195 33.27073669433594 111.5597381591797 30.17032432556152 109.6449203491211 27.70719718933105 C 108.6973266601562 26.48828315734863 107.5660934448242 25.44937133789062 106.2825698852539 24.61934852600098 C 104.9630508422852 23.76602363586426 103.5103530883789 23.1529369354248 101.9644622802734 22.79700088500977 L 21.90789604187012 4.356305599212646 C 20.88152503967285 4.119871139526367 19.83402633666992 4.000001430511475 18.79450416564941 4.000001430511475 C 15.4808521270752 4.000001430511475 12.26976490020752 5.206588268280029 9.752764701843262 7.39747953414917 C 7.204243183135986 9.615805625915527 5.585286617279053 12.68250179290771 5.19413423538208 16.03226280212402 C 4.401764869689941 22.82376289367676 4.000003814697266 29.75098037719727 4.000003814697266 36.62150192260742 C 4.000003814697266 53.52432632446289 6.39532995223999 70.23786926269531 11.119460105896 86.29791259765625 C 15.69428634643555 101.8503723144531 22.42315673828125 116.70654296875 31.11922073364258 130.4539184570312 C 33.60680770874023 134.3868560791016 37.90480804443359 136.7350921630859 42.61687469482422 136.7354583740234 L 42.61746215820312 136.7354583740234 M 42.61603927612305 140.7354583740234 C 36.81317520141602 140.7350006103516 31.10213851928711 137.9098358154297 27.73867797851562 132.5921173095703 C 10.17254734039307 104.8223495483398 -1.771611823642161e-05 71.91098022460938 4.023012934339931e-06 36.62150192260742 C 4.023012934339931e-06 29.49874114990234 0.4154388010501862 22.47404479980469 1.221091032028198 15.56871891021729 C 2.441221714019775 5.119520664215088 12.553635597229 -1.903234481811523 22.80576515197754 0.4583709239959717 L 102.8623275756836 18.89906692504883 C 111.0198059082031 20.77730560302734 116.630241394043 28.1038932800293 116.6108322143555 36.47489166259766 C 116.6098556518555 36.5234375 116.6098556518555 36.57195663452148 116.6098556518555 36.62147903442383 C 116.6098556518555 46.43587112426758 118.8540496826172 55.72417449951172 122.8502655029297 64.00782775878906 C 126.4805450439453 71.53241729736328 124.5333938598633 80.55087280273438 117.9940032958984 85.74880218505859 L 53.68065643310547 136.868896484375 C 50.3960075378418 139.4797515869141 46.48599243164062 140.7357635498047 42.61603927612305 140.7354583740234 Z" stroke="none" fill="#3ea4de"/>
      </g>
    </g>
  </g>
</svg>
